<svg xmlns="http://www.w3.org/2000/svg" width="100%" height="100%" xmlns:svg="http://www.w3.org/2000/svg" xmlns:xlink="http://www.w3.org/1999/xlink" viewBox="1.98026 2 240.113 250.717" preserveAspectRatio="xMidYMid meet">
 <g>
  <path fill="#ff7400" fill-rule="evenodd" stroke="#000000" stroke-width="2.917881" stroke-linecap="round" stroke-miterlimit="4" d="m72.316666,218.582565c-4.926376,0.496033 -4.21701,6.59816 -3.996101,10.206009c-0.063049,9.563248 0.022346,19.126373 0.137077,28.688904c-7.778984,-1.020691 -15.548542,-3.135132 -23.30648,-3.782867c-4.34996,0.526886 -5.238777,7.492706 -0.533157,8.25119c3.016655,1.06485 13.71653,1.246063 11.615356,2.807831c-6.654858,3.032104 -14.035606,4.916718 -20.399715,8.337646c-3.41959,3.353119 1.327564,9.343994 5.455536,6.716644c8.151825,-3.102356 16.224628,-6.407227 24.350353,-9.58551c-0.769936,4.422974 -4.679012,8.560455 -3.859024,13.100372c1.768581,4.588654 9.426086,3.605194 9.571396,-1.701019c2.043404,-5.299652 3.895706,-10.677124 5.890091,-15.994629c7.291344,-3.240723 15.194359,-5.482727 22.265564,-8.987488c3.539658,-2.731033 0.593353,-8.851898 -3.80825,-7.36261c-6.027016,2.161621 -11.962242,4.6819 -17.898766,7.007172c-0.165695,-11.1884 -0.161751,-22.406219 -0.126945,-33.537964c-0.347343,-2.575775 -2.805786,-4.380737 -5.356934,-4.163681z" id="path3943"/>
  <g fill="#d24e11" id="g3979">
   <path fill="#d24e11" fill-rule="nonzero" stroke="#000000" stroke-width="4.13691" stroke-linecap="round" stroke-linejoin="round" stroke-miterlimit="4" id="path3977" d="m205.426407,112.747993c2.788116,-8.388786 1.43222,-13.348015 -0.376404,-14.534256c-4.0336,-3.313904 -9.121964,-3.156937 -13.862106,-4.077972c-2.850784,0.108917 -6.119049,-0.635567 -10.193634,7.319901c-3.356094,7.68943 -5.608597,17.251877 -7.480225,25.712151c-3.699081,17.256302 -3.633606,32.899918 1.200775,35.023376c6.040497,3.149063 16.754059,-12.811249 24.782745,-32.825348c2.13504,-5.265762 4.138412,-10.875557 5.928848,-16.617851z"/>
   <path fill="#d24e11" fill-rule="nonzero" stroke="#000000" stroke-width="4.13691" stroke-linecap="round" stroke-linejoin="round" stroke-miterlimit="4" d="m220.864059,124.37072c4.880844,-7.370377 4.866226,-12.511604 3.429886,-14.128761c-3.0289,-4.251755 -7.981888,-5.42823 -12.317383,-7.554466c-2.780396,-0.63887 -5.741104,-2.210533 -11.750732,4.405815c-5.246628,6.547028 -9.916733,15.190201 -13.931519,22.868774c-8.074539,15.692825 -12.094131,30.811356 -7.981491,34.122925c5.009308,4.616425 19.516968,-7.994644 32.490845,-25.219711c3.435318,-4.526047 6.833344,-9.418549 10.060394,-14.494576z" id="path3971"/>
   <path fill="#d24e11" fill-rule="nonzero" stroke="#000000" stroke-width="4.13691" stroke-linecap="round" stroke-linejoin="round" stroke-miterlimit="4" id="path3975" d="m234.334244,137.064331c6.309433,-6.19162 7.366364,-11.223061 6.298523,-13.104004c-2.076523,-4.789558 -6.675659,-6.972237 -10.472961,-9.955147c-2.586243,-1.204185 -5.154495,-3.358261 -12.410843,1.860672c-6.495621,5.31012 -12.864151,12.790504 -18.390778,19.464012c-11.16713,13.665955 -18.248642,27.615112 -14.916275,31.710922c3.937469,5.558868 20.754395,-3.752548 37.032578,-17.896271c4.303009,-3.710892 8.645874,-7.787979 12.859756,-12.080185z"/>
  </g>
  <path fill="#ff7400" fill-rule="evenodd" stroke="#000000" stroke-width="2.917881" stroke-linecap="round" stroke-miterlimit="4" d="m145.07959,218.024017c-5.560471,0.737534 -4.641861,7.448563 -4.214462,11.475525c-0.364014,8.704224 -0.040726,17.490753 -0.279266,26.226135c-6.621185,-2.106415 -12.958359,-6.249634 -19.879051,-7.083344c-5.247437,0.628723 -3.809135,8.689117 0.990143,8.708191c6.415718,2.984558 14.102745,4.723785 19.731468,8.479218c2.777664,6.203705 3.911835,13.422913 7.687912,19.041718c3.459671,2.903381 9.8396,-1.447174 7.134125,-5.610809c-0.974442,-3.944092 -6.585388,-12.650146 0.983749,-7.82486c7.489975,2.606903 14.674454,6.509216 22.348114,8.358002c5.014389,0.054321 5.531525,-8.135345 0.457001,-8.505066c-6.465561,-2.56424 -12.931137,-5.128448 -19.396683,-7.692657c4.956467,-1.557343 11.193863,-0.393219 15.461487,-3.579773c2.97699,-3.348022 -1.778061,-8.531738 -5.560043,-6.600952c-6.871765,1.167862 -13.743546,2.335724 -20.615311,3.503571c-0.065292,-12.102798 0.653198,-24.380219 -0.2285,-36.381454c-0.803925,-1.699097 -2.770721,-2.699341 -4.620682,-2.513443z" id="path3492"/>
  <path fill="#ffffff" fill-rule="nonzero" stroke="#000000" stroke-width="4" stroke-linecap="round" stroke-linejoin="round" stroke-miterlimit="4" d="m197.863129,163.974838c0.014648,49.158478 -39.832047,89.017075 -88.990532,89.017075c-49.158474,0 -89.005182,-39.858597 -88.990526,-89.017075c-0.014656,-49.158478 39.832052,-89.017059 88.990526,-89.017059c49.158485,0 89.00518,39.858582 88.990532,89.017059z" id="path3885"/>
  <path fill="#000000" fill-opacity="0.313725" fill-rule="nonzero" stroke-width="4" stroke-linecap="round" stroke-linejoin="round" stroke-miterlimit="4" d="m192.483032,133.443161c0.062378,1.36618 0.101547,2.756805 0.101547,4.13829c0,49.122772 -39.863297,88.986069 -88.986076,88.986069c-38.397026,0 -71.161392,-24.372192 -83.629129,-58.469299c2.155781,47.211868 41.168589,84.873154 88.909899,84.873154c49.122787,0 88.986084,-39.863297 88.986084,-88.986069c0,-10.7258 -1.899582,-21.017487 -5.382324,-30.542145z" id="path3887"/>
  <path fill="#ff0000" fill-rule="evenodd" stroke="#000000" stroke-width="2.7" stroke-linecap="round" stroke-linejoin="round" stroke-miterlimit="4" d="m112.880463,39.554279l-4.003929,38.111057c8.60141,-8.492943 17.709915,-16.372692 29.753777,-19.718182c33.582428,-9.328342 -9.490814,-39.95085 -25.749847,-18.392876z" id="path4090"/>
  <path fill="#ff0000" fill-rule="evenodd" stroke="#000000" stroke-width="2.940043" stroke-linecap="round" stroke-linejoin="round" stroke-miterlimit="4" id="path4092" d="m100.23735,31.954504l7.224075,45.410654c5.657578,-12.659393 11.970169,-24.776417 22.358521,-32.614723c28.966217,-21.855803 -20.476616,-43.09334 -29.582596,-12.795931z"/>
  <path fill="#ffffff" fill-rule="nonzero" stroke="#000000" stroke-width="2.715711" stroke-linecap="round" stroke-linejoin="round" stroke-miterlimit="4" id="path3984" d="m167.665894,108.685303c0.009933,33.375061 -27.043091,60.436142 -60.418144,60.436142c-33.375053,0 -60.428085,-27.061081 -60.41814,-60.436142c-0.009945,-33.375053 27.043087,-60.436153 60.41814,-60.436153c33.375053,0 60.428078,27.0611 60.418144,60.436153z"/>
  <g id="g4080">
   <path fill="#ffffff" fill-rule="nonzero" stroke="#000000" stroke-width="2.709584" stroke-linecap="round" stroke-linejoin="round" stroke-miterlimit="4" d="m148.756989,98.453545c0.002838,9.556091 -7.743088,17.304321 -17.299164,17.304321c-9.556091,0 -17.302025,-7.74823 -17.299179,-17.304321c-0.002846,-9.556084 7.743088,-17.304314 17.299179,-17.304314c9.556076,0 17.302002,7.74823 17.299164,17.304314z" id="path4014"/>
   <path fill="#000000" fill-rule="nonzero" stroke-width="47.666691" stroke-linecap="round" stroke-linejoin="round" stroke-miterlimit="4" d="m133.379959,101.506874c0.000946,3.185356 -2.581024,5.768105 -5.766388,5.768105c-3.185364,0 -5.767349,-2.582748 -5.766396,-5.768105c-0.000954,-3.185364 2.581032,-5.768112 5.766396,-5.768112c3.185364,0 5.767334,2.582748 5.766388,5.768112z" id="path4016"/>
  </g>
  <g id="g4084">
   <path fill="#ffffff" fill-rule="nonzero" stroke="#000000" stroke-width="2.709584" stroke-linecap="round" stroke-linejoin="round" stroke-miterlimit="4" d="m101.482033,98.453545c0.002846,9.556091 -7.743095,17.304321 -17.299171,17.304321c-9.556091,0 -17.302017,-7.74823 -17.299171,-17.304321c-0.002846,-9.556084 7.74308,-17.304314 17.299171,-17.304314c9.556076,0 17.302017,7.74823 17.299171,17.304314z" id="path4012"/>
   <path fill="#000000" fill-rule="nonzero" stroke-width="47.666691" stroke-linecap="round" stroke-linejoin="round" stroke-miterlimit="4" d="m94.27404,101.506874c0.000946,3.185356 -2.581024,5.768105 -5.76638,5.768105c-3.185364,0 -5.767334,-2.582748 -5.766388,-5.768105c-0.000946,-3.185364 2.581024,-5.768112 5.766388,-5.768112c3.185356,0 5.767326,2.582748 5.76638,5.768112z" id="path4018"/>
  </g>
  <path fill="#000000" fill-opacity="0.313725" fill-rule="nonzero" stroke-width="4" stroke-linecap="round" stroke-linejoin="round" stroke-miterlimit="4" id="path4022" d="m166.342728,88.200668l-1.417938,2.158005c0.188217,2.498604 0.259964,5.039192 0.259964,7.616501c0,36.700943 -36.598999,67.160156 -61.892876,63.166962c-21.061584,-3.325012 -46.203308,-15.974655 -57.520901,-42.653198c5.759323,32.697144 43.236225,56.929489 61.160275,56.740036c39.738564,-0.415634 61.89286,-28.544205 61.89286,-65.245125c0,-7.629944 -0.813232,-14.956978 -2.481384,-21.78318z"/>
  <path fill="#ff0000" fill-rule="evenodd" stroke="#000000" stroke-width="2.7" stroke-linecap="round" stroke-linejoin="round" stroke-miterlimit="4" id="path3454" d="m90.215858,138.1633l14.97477,35.273788l16.463623,-31.670868c-5.702599,-14.391365 -22.985153,-16.211731 -31.438393,-3.602921z"/>
  <path fill="#ffce00" fill-rule="evenodd" stroke="#000000" stroke-width="3.098956" stroke-linecap="round" stroke-linejoin="round" stroke-miterlimit="4" d="m86.41391,127.826576l10.326927,40.970604l26.477219,-29.536499c-3.72686,-16.616959 -23.993515,-22.732948 -36.804146,-11.434105z" id="path4088"/>
  <path fill="#ff0000" fill-rule="evenodd" stroke="#000000" stroke-width="3.061738" stroke-linecap="round" stroke-linejoin="round" stroke-miterlimit="4" d="m84.355766,27.818653l22.189713,50.145275c1.037056,-14.682446 2.874619,-28.818104 9.99958,-38.540115c19.866806,-27.108213 -33.882278,-46.337865 -32.189293,-11.60516z" id="path4094"/>
  <g id="g2927"/>
 </g>
</svg>
