<svg xmlns="http://www.w3.org/2000/svg" width="100%" height="100%" xmlns:svg="http://www.w3.org/2000/svg" xmlns:xlink="http://www.w3.org/1999/xlink" viewBox="1.98026 2 240.113 250.717" preserveAspectRatio="xMidYMid meet">
 <g>
  <path fill="#ffffff" fill-rule="nonzero" stroke="#000000" stroke-width="4" stroke-linecap="round" stroke-linejoin="round" stroke-miterlimit="4" id="path2383" d="M242.07350158691406,122.07247924804688c0.019744873046875,66.30841064453125,-53.728302001953125,120.072509765625,-120.0367431640625,120.072509765625c-66.30843353271484,0,-120.0564956665039,-53.76409912109375,-120.03673553466797,-120.072509765625c-0.01976001262664795,-66.30841064453125,53.728302001953125,-120.07247924804688,120.03673553466797,-120.07247924804688c66.30844116210938,0,120.05648803710938,53.764068603515625,120.0367431640625,120.07247924804688Z"/>
  <path fill="#000000" fill-opacity="0.313725" fill-rule="nonzero" stroke-width="4" stroke-linecap="round" stroke-linejoin="round" stroke-miterlimit="4" id="path3221" d="m122.1875,62.963711c-55.318283,1.121067 -79.1875,37.343906 -79.1875,81.812504c0,19.85112 10.824509,38.074753 25.15625,52.25c-30.524189,-12.934372 -54.59833,-38.139206 -66.03125,-69.406258c2.90787,63.682701 55.50938,114.500008 119.90625,114.500008c66.260284,0 120.03125,-53.771011 120.03125,-120.031258c0,-14.467697 -2.552216,-28.339958 -7.25,-41.1875c0.084152,1.842812 0.15625,3.699043 0.15625,5.5625c0,32.537361 -12.987503,62.061623 -34.03125,83.687508c3.605835,-7.987946 5.75,-16.521255 5.75,-25.375c0,-45.174454 -24.621155,-81.812504 -81.84375,-81.812504c-0.893951,0 -1.778183,-0.017792 -2.65625,0z"/>
  <path fill="#333333" fill-rule="nonzero" stroke="#000000" stroke-width="4" stroke-linecap="round" stroke-linejoin="round" stroke-miterlimit="4" id="path3172" d="m130.217026,242.64212c0,9.090759 14.665344,9.381348 32.735107,9.381348c18.069794,0 32.735138,0.693481 32.735138,-9.381348c0,-17.715942 -14.665344,-32.094116 -32.735138,-32.094116c-18.069763,0 -32.735107,14.378174 -32.735107,32.094116z"/>
  <path fill="#333333" fill-rule="nonzero" stroke="#000000" stroke-width="4" stroke-linecap="round" stroke-linejoin="round" stroke-miterlimit="4" id="path3329" d="m115.219223,242.64212c0,9.090759 -14.665344,9.381348 -32.7351,9.381348c-18.069801,0 -32.735142,0.693481 -32.735142,-9.381348c0,-17.715942 14.66534,-32.094116 32.735142,-32.094116c18.069756,0 32.7351,14.378174 32.7351,32.094116z"/>
  <path fill="#000000" fill-opacity="0.313725" fill-rule="evenodd" stroke="#000000" stroke-width="4" stroke-linejoin="round" stroke-miterlimit="4" id="path3331" d="m69.893692,251.422516c0,-16.367554 9.44281,-26.439941 9.44281,-26.439941c0,0 -3.77713,13.849487 -3.147614,26.439941l-6.295197,0z"/>
  <path fill="#ffffff" fill-rule="nonzero" stroke="#000000" stroke-width="4" stroke-linecap="round" stroke-linejoin="round" stroke-miterlimit="4" id="path3155" d="M119.375,49.77619934082031c-30.129302978515625,0.6105995178222656,-50.93170166015625,11.653301239013672,-63.625,28.75c-24.06439971923828,-2.587799072265625,-44.0625,23.624801635742188,-44.0625,23.624801635742188c0,0,18.89109992980957,9.446998596191406,32.0625,1.5309982299804688c-2.3992996215820312,8.711997985839844,-3.5625,18.106002807617188,-3.5625,27.907005310058594c0,45.17399597167969,56.12550354003906,81.84300231933594,81.84349822998047,81.84300231933594c26.717002868652344,0,81.84400177001953,-36.66900634765625,81.84400177001953,-81.84300231933594c0,-9.801002502441406,-1.16400146484375,-19.19500732421875,-3.5630035400390625,-27.907005310058594c13.1719970703125,7.9160003662109375,32.03199768066406,-1.5309982299804688,32.03199768066406,-1.5309982299804688c0,0,-19.970993041992188,-26.204299926757812,-44.03199768066406,-23.624801635742188c-13.060989379882812,-17.595001220703125,-34.707000732421875,-28.75,-66.28099822998047,-28.75c-0.8939971923828125,0,-1.7779998779296875,-0.01779937744140625,-2.6559982299804688,0l0,0Z"/>
  <path fill="#000000" fill-opacity="0.313725" fill-rule="evenodd" stroke="#000000" stroke-width="4" stroke-linejoin="round" stroke-miterlimit="4" id="path3174" d="m175.542557,251.422516c0,-16.367554 -9.44281,-26.439941 -9.44281,-26.439941c0,0 3.77713,13.849487 3.147614,26.439941l6.295197,0z"/>
  <path fill="#ffffff" fill-rule="nonzero" stroke="#000000" stroke-width="4" stroke-linecap="round" stroke-linejoin="round" stroke-miterlimit="4" id="path3157" d="m118.407211,119.602203c0.003716,12.518921 -10.143829,22.669495 -22.66275,22.669495c-12.518951,0 -22.666534,-10.150574 -22.662781,-22.669495c-0.003754,-12.518982 10.143829,-22.669556 22.662781,-22.669556c12.518921,0 22.666466,10.150574 22.66275,22.669556z"/>
  <path fill="#ffffff" fill-rule="nonzero" stroke="#000000" stroke-width="4" stroke-linecap="round" stroke-linejoin="round" stroke-miterlimit="4" id="path3159" d="m171.13942,119.602203c0.003723,12.518921 -10.143829,22.669495 -22.662781,22.669495c-12.518951,0 -22.666512,-10.150574 -22.662781,-22.669495c-0.003716,-12.518982 10.143829,-22.669556 22.662781,-22.669556c12.518951,0 22.666504,10.150574 22.662781,22.669556z"/>
  <path fill="#000000" fill-rule="nonzero" stroke-width="47.666691" stroke-linecap="round" stroke-linejoin="round" stroke-miterlimit="4" id="path3161" d="m150.994736,123.602203c0.001251,4.172974 -3.381287,7.556519 -7.55426,7.556519c-4.172974,0 -7.555511,-3.383545 -7.55426,-7.556519c-0.001251,-4.172974 3.381287,-7.556526 7.55426,-7.556526c4.172974,0 7.555511,3.383553 7.55426,7.556526z"/>
  <path fill="#000000" fill-rule="nonzero" stroke-width="47.666691" stroke-linecap="round" stroke-linejoin="round" stroke-miterlimit="4" id="path3163" d="m108.964401,123.602203c0.001251,4.172974 -3.381294,7.556519 -7.55426,7.556519c-4.172974,0 -7.555511,-3.383545 -7.55426,-7.556519c-0.001251,-4.172974 3.381287,-7.556526 7.55426,-7.556526c4.172981,0 7.555511,3.383553 7.55426,7.556526z"/>
  <path fill="#000000" fill-opacity="0.313725" fill-rule="nonzero" stroke-width="4" stroke-linecap="round" stroke-linejoin="round" stroke-miterlimit="4" id="path3231" d="m200.593735,104.776207l-1.875,2.65625c0.248901,3.0755 0.34375,6.202644 0.34375,9.375c0,45.174507 -55.127136,81.843758 -81.843758,81.843758c-20.705811,0 -61.096706,-23.755676 -76.062496,-56.59375c7.615818,40.246277 57.171909,71.375 80.874996,71.375c26.716621,0 81.843758,-36.669312 81.843758,-81.84375c0,-9.391548 -1.075378,-18.410278 -3.28125,-26.812508z"/>
  <path fill="#000000" fill-rule="nonzero" stroke-width="47.666691" stroke-linecap="round" stroke-linejoin="round" stroke-miterlimit="4" id="path2398" d="m138.632187,184.233551c-2.292725,3.973083 -6.500244,5.838562 -9.396759,4.16626c-2.896545,-1.672302 -3.384735,-6.248901 -1.090302,-10.221008c2.292725,-3.973083 6.500275,-5.838562 9.39679,-4.16626c2.896545,1.672302 3.384705,6.248901 1.090271,10.221008z"/>
  <path fill="#000000" fill-rule="nonzero" stroke-width="47.666691" stroke-linecap="round" stroke-linejoin="round" stroke-miterlimit="4" id="path2412" d="m105.895126,184.233551c2.292725,3.973083 6.500275,5.838562 9.396797,4.16626c2.896538,-1.672302 3.384697,-6.248901 1.090263,-10.221008c-2.292725,-3.973083 -6.500244,-5.838562 -9.39679,-4.16626c-2.896515,1.672302 -3.384705,6.248901 -1.090271,10.221008z"/>
  <title>Layer 1</title>
 </g>
<path fill="#ffffff" fill-rule="nonzero" stroke="#000000" stroke-width="4" stroke-linecap="round" stroke-linejoin="round" stroke-miterlimit="4" d="M 81.465 77.9835 q -5.07468 -12.2841 9.44122 -9.18607 q 8.35165 -19.2347 26.7926 -1.53103 q 10.5589 -18.4296 31.1305 3.82754 q 23.3069 -10.5443 20.1583 12.2481 q -6.85669 16.973 -28.3237 1.53099 q -10.8931 15.064 -30.365 -0.25518 q -5.56597 13.1557 -17.0963 2.29649 q -19.6222 10.802 -11.7377 -7.14473 Z"/></svg>
