<svg xmlns="http://www.w3.org/2000/svg" width="100%" height="100%" xmlns:svg="http://www.w3.org/2000/svg" xmlns:xlink="http://www.w3.org/1999/xlink" viewBox="1.98026 2 240.113 250.717" preserveAspectRatio="xMidYMid meet">
 <g>
  <g id="g2927"/>
  <path fill="#ffaaaa" stroke="#000000" stroke-width="1.791011" d="m228.96051,94.479561c-2.44693,-0.05645 -4.921478,0.500526 -7.17952,1.745811c-1.047195,0.578949 -1.43396,1.910446 -0.863831,2.97393c0.570114,1.063484 1.88121,1.4562 2.92836,0.877121c5.046997,-2.783379 11.719589,-0.75341 14.342133,4.97216c2.337189,5.102524 0.632172,11.818291 -4.027924,15.755104c-0.037994,-1.68454 -0.232834,-3.355896 -0.724701,-4.963577c-2.468063,-8.06678 -10.185593,-12.096474 -16.322418,-9.576309c-6.366425,2.614479 -8.041,11.091736 -3.471756,16.807739c0.250031,0.31279 0.517715,0.611801 0.792114,0.89859c-2.208496,-0.972145 -4.608292,-1.173195 -6.817169,-0.333763c-2.773849,1.054153 -4.590012,3.537552 -5.013855,6.272949c-0.417496,2.69458 0.478287,5.649094 2.662827,7.933182c-2.122681,-0.927078 -4.478302,-1.05777 -6.606476,-0.111252c-4.895447,2.177292 -6.003098,8.965714 -2.131943,13.264771c2.006378,2.228149 4.865768,3.46579 7.971603,3.671356c-0.474182,0.466476 -0.980301,0.903595 -1.567368,1.249451c-3.281265,1.932968 -7.283173,1.052567 -8.965942,-1.266586c-0.453827,-0.640305 -1.211578,-0.983398 -1.983887,-0.898224c-0.772308,0.085159 -1.43988,0.585449 -1.747818,1.309738c-0.307907,0.724319 -0.208633,1.560822 0.259918,2.190094c3.18512,4.389664 9.556732,5.420532 14.603378,2.447571c2.400101,-1.41391 4.149902,-3.51564 5.241364,-5.887863c1.329269,-0.462967 2.644699,-1.066177 3.884689,-1.916962c4.065292,-2.789276 6.651367,-7.119186 7.508163,-11.673004c1.315338,-0.555695 2.609573,-1.221832 3.842529,-2.113785c3.992218,-2.888184 6.674988,-7.095154 7.887344,-11.604538c0.552902,-0.28112 1.100677,-0.580063 1.63475,-0.924248c7.506256,-4.837318 10.565399,-14.600548 7.002563,-22.378944c-2.506439,-5.472015 -7.753983,-8.596329 -13.137131,-8.720512l0,0zm-7.39859,15.481262c3.021744,0.307732 6.370712,2.66375 7.752502,7.180084c0.587433,1.920044 0.666153,4.0439 0.362335,6.170265c-4.894226,1.611214 -10.097504,0.248543 -12.690536,-2.995277c-3.008636,-3.763718 -1.906509,-8.487816 1.744324,-9.987091c0.849686,-0.34893 1.824097,-0.470558 2.831375,-0.367981zm-3.269562,16.82486c2.953339,1.479958 6.440033,1.952187 9.926605,1.386375c-1.157013,2.470612 -2.876984,4.723618 -5.148682,6.367096c-0.357224,0.258408 -0.729706,0.448944 -1.09549,0.667511c-0.090698,-0.887558 -0.25386,-1.759048 -0.488754,-2.618729c-0.637512,-2.333435 -1.786346,-4.266479 -3.19368,-5.802254zm-8.156982,0.727417c2.503983,-0.219498 5.957855,1.705772 7.196365,6.238716c0.272827,0.998657 0.364594,2.071564 0.353912,3.157867c-3.780975,0.79454 -7.375717,-0.109634 -9.286163,-2.053894c-1.359543,-1.383591 -1.745728,-2.947403 -1.542068,-4.261841c0.203644,-1.314438 0.945847,-2.353149 2.275192,-2.858337c0.309692,-0.117706 0.64505,-0.191154 1.002762,-0.222511zm-1.575775,12.691383c2.443466,1.221756 5.317642,1.695175 8.300232,1.343597c-0.951981,2.637421 -2.671295,5.073196 -5.055984,6.709396c-0.072174,0.049515 -0.1465,0.080841 -0.219101,0.128372c0.017792,-1.331604 -0.137497,-2.666885 -0.539291,-3.945206c-0.528336,-1.680893 -1.417465,-3.084381 -2.485855,-4.23616zm-6.463242,1.266571c1.848709,0.132721 3.955933,1.501846 4.836884,4.304642c0.422882,1.345337 0.433685,2.86676 0.092682,4.347412c-3.013443,0.434509 -5.82547,-0.434723 -7.314316,-2.088135c-2.186295,-2.427979 -1.470047,-5.332672 0.682556,-6.29007c0.504822,-0.224518 1.085968,-0.318085 1.702194,-0.273849z" id="path2980"/>
  <path fill="#ffd4aa" fill-rule="nonzero" stroke="#000000" stroke-width="4" stroke-linecap="round" stroke-linejoin="round" stroke-miterlimit="4" id="path2383" d="m208.0737,160.490692c0.016037,56.317337 -43.65657,101.980469 -97.535027,101.980469c-53.878437,0 -97.551065,-45.663132 -97.534978,-101.980469c-0.016088,-56.317345 43.656541,-101.980461 97.534978,-101.980461c53.878456,0 97.551064,45.663116 97.535027,101.980461z"/>
  <path fill="#000000" fill-opacity="0.313725" fill-rule="nonzero" stroke-width="4" stroke-linecap="round" stroke-linejoin="round" stroke-miterlimit="4" id="path3221" d="m202.177002,125.512733c0.068375,1.56514 0.111313,3.158272 0.111313,4.740944c0,56.276443 -43.690781,101.944962 -97.530113,101.944962c-42.083748,0 -77.994009,-27.921478 -91.658854,-66.984085c2.362763,54.08725 45.121425,97.233078 97.446658,97.233078c53.83934,0 97.530106,-45.668503 97.530106,-101.944946c0,-12.287781 -2.08197,-24.078232 -5.899109,-34.989952z"/>
  <path fill="#412424" fill-rule="nonzero" stroke="#000000" stroke-width="4" stroke-linecap="round" stroke-linejoin="round" stroke-miterlimit="4" id="path3172" d="m117.82267,263.4021c0,8.461151 13.058464,8.731567 29.148384,8.731567c16.08989,0 29.148376,0.645477 29.148376,-8.731567c0,-16.488907 -13.058487,-29.871216 -29.148376,-29.871216c-16.08992,0 -29.148384,13.382309 -29.148384,29.871216z"/>
  <path fill="#000000" fill-opacity="0.313725" fill-rule="evenodd" stroke="#000000" stroke-width="4" stroke-linejoin="round" stroke-miterlimit="4" id="path3174" d="m158.181961,271.574371c0,-15.233917 -8.408203,-24.608643 -8.408203,-24.608643c0,0 3.363281,12.890259 2.802734,24.608643l5.605469,0z"/>
  <path fill="#412424" fill-rule="nonzero" stroke="#000000" stroke-width="4" stroke-linecap="round" stroke-linejoin="round" stroke-miterlimit="4" id="path3329" d="m104.468147,263.4021c0,8.461151 -13.058487,8.731567 -29.148407,8.731567c-16.089893,0 -29.148384,0.645477 -29.148384,-8.731567c0,-16.488907 13.058491,-29.871216 29.148384,-29.871216c16.08992,0 29.148407,13.382309 29.148407,29.871216z"/>
  <path fill="#000000" fill-opacity="0.313725" fill-rule="evenodd" stroke="#000000" stroke-width="4" stroke-linejoin="round" stroke-miterlimit="4" id="path3331" d="m64.108826,271.574371c0,-15.233917 8.408203,-24.608643 8.408203,-24.608643c0,0 -3.363274,12.890259 -2.802734,24.608643l-5.605469,0z"/>
  <g id="g4318" transform="matrix(-0.890432, 0, 0, 0.930739, -279.173, 38.3243)">
   <path fill="#ffaaaa" fill-rule="nonzero" stroke="#000000" stroke-width="3.782212" stroke-linecap="round" stroke-linejoin="round" stroke-miterlimit="4" d="m-411.768707,11.24785c-7.037598,6.404999 0.528839,16.4559 10.128937,28.58779c9.600067,12.131901 16.854584,22.46669 24.653961,15.368359c13.714691,-12.481949 33.097107,-47.059459 23.49704,-59.191349c-9.600067,-12.13189 -44.565277,2.75325 -58.279938,15.2352z" id="path4320"/>
   <path fill="none" fill-rule="evenodd" stroke="#000000" stroke-width="3.5" stroke-linecap="round" stroke-linejoin="round" stroke-miterlimit="4" d="m-385.219147,9.44019c5.451416,-3.98765 19.60257,-6.91719 27.894379,-8.29916" id="path4322"/>
  </g>
  <g transform="matrix(0.890432, 0, 0, 0.930739, 500.346, 38.3243)" id="g4314">
   <path fill="#ffaaaa" fill-rule="nonzero" stroke="#000000" stroke-width="3.782212" stroke-linecap="round" stroke-linejoin="round" stroke-miterlimit="4" id="path4310" d="m-411.768707,11.24785c-7.037598,6.404999 0.528839,16.4559 10.128937,28.58779c9.600067,12.131901 16.854584,22.46669 24.653961,15.368359c13.714691,-12.481949 33.097107,-47.059459 23.49704,-59.191349c-9.600067,-12.13189 -44.565277,2.75325 -58.279938,15.2352z"/>
   <path fill="none" fill-rule="evenodd" stroke="#000000" stroke-width="3.5" stroke-linecap="round" stroke-linejoin="round" stroke-miterlimit="4" id="path4312" d="m-385.219147,9.44019c5.451416,-3.98765 19.60257,-6.91719 27.894379,-8.29916"/>
  </g>
  <path fill="#ffd4aa" fill-rule="nonzero" stroke="#000000" stroke-width="3.031296" stroke-linecap="round" stroke-linejoin="round" stroke-miterlimit="4" d="m184.779724,109.514534c0.012207,42.490852 -33.230209,76.943184 -74.241051,76.943184c-41.010818,0 -74.253262,-34.452332 -74.241035,-76.943184c-0.012226,-42.490837 33.230217,-76.943184 74.241035,-76.943184c41.010841,0 74.253258,34.452347 74.241051,76.943184z" id="path4252"/>
  <path fill="#ffaaaa" fill-rule="nonzero" stroke="#000000" stroke-width="2.7" stroke-linecap="round" stroke-linejoin="round" stroke-miterlimit="4" d="m142.119843,145.834717c0.005188,14.442352 -14.135689,26.152466 -31.581169,26.152466c-17.445465,0 -31.586342,-11.710114 -31.581123,-26.152466c-0.005219,-14.442322 14.135658,-26.152435 31.581123,-26.152435c17.44548,0 31.586357,11.710114 31.581169,26.152435z" id="path4250"/>
  <g id="g4275" transform="matrix(1.23505, 0, 0, 1.29096, -21.7511, 16.899)">
   <path fill="#ffffff" fill-rule="nonzero" stroke="#000000" stroke-width="2.709584" stroke-linecap="round" stroke-linejoin="round" stroke-miterlimit="4" d="m142.819016,56.16674c0.002518,8.480293 -6.871399,15.356247 -15.351677,15.356247c-8.480286,0 -15.354202,-6.875954 -15.351677,-15.356247c-0.002525,-8.480282 6.871391,-15.356239 15.351677,-15.356239c8.480278,0 15.354195,6.875957 15.351677,15.356239z" id="path4277"/>
   <path fill="#000000" fill-rule="nonzero" stroke-width="47.666691" stroke-linecap="round" stroke-linejoin="round" stroke-miterlimit="4" d="m129.17308,58.876331c0.000839,2.826759 -2.290459,5.118748 -5.117218,5.118748c-2.826759,0 -5.118073,-2.291988 -5.117226,-5.118748c-0.000847,-2.826763 2.290466,-5.118752 5.117226,-5.118752c2.826759,0 5.118057,2.291988 5.117218,5.118752z" id="path4279"/>
  </g>
  <g id="g4281" transform="matrix(1.23505, 0, 0, 1.29096, -29.4483, 16.899)">
   <path fill="#ffffff" fill-rule="nonzero" stroke="#000000" stroke-width="2.709584" stroke-linecap="round" stroke-linejoin="round" stroke-miterlimit="4" d="m107.098427,56.16674c0.002525,8.480293 -6.871399,15.356247 -15.351677,15.356247c-8.480293,0 -15.354202,-6.875954 -15.351677,-15.356247c-0.002525,-8.480282 6.871384,-15.356239 15.351677,-15.356239c8.480278,0 15.354202,6.875957 15.351677,15.356239z" id="path4283"/>
   <path fill="#000000" fill-rule="nonzero" stroke-width="47.666691" stroke-linecap="round" stroke-linejoin="round" stroke-miterlimit="4" d="m100.701889,58.876331c0.000839,2.826759 -2.290459,5.118748 -5.117218,5.118748c-2.826759,0 -5.118057,-2.291988 -5.117218,-5.118748c-0.000839,-2.826763 2.290459,-5.118752 5.117218,-5.118752c2.826759,0 5.118057,2.291988 5.117218,5.118752z" id="path4285"/>
  </g>
  <path fill="#000000" fill-opacity="0.313725" fill-rule="nonzero" stroke-width="4" stroke-linecap="round" stroke-linejoin="round" stroke-miterlimit="4" id="path4287" d="m180.677078,85.108017l-1.759125,2.626007c0.233505,3.040474 0.322495,6.132019 0.322495,9.268265c0,44.660156 -45.405396,81.72493 -76.785477,76.865768c-26.129395,-4.046112 -50.730373,-14.616974 -64.771194,-47.081192c7.145111,39.78804 47.049355,64.453506 69.286263,64.222977c49.300438,-0.505768 76.785484,-34.734497 76.785484,-79.3946c0,-9.284622 -1.008911,-18.200653 -3.078445,-26.507225z"/>
  <path fill="#000000" fill-rule="nonzero" stroke-width="47.666691" stroke-linecap="round" stroke-linejoin="round" stroke-miterlimit="4" d="m130.66127,144.401688c0.001022,3.649246 -2.828857,6.608124 -6.320068,6.608124c-3.491211,0 -6.321091,-2.958878 -6.320061,-6.608124c-0.00103,-3.649231 2.82885,-6.608093 6.320061,-6.608093c3.491211,0 6.321091,2.958862 6.320068,6.608093z" id="path4328"/>
  <path fill="#000000" fill-rule="nonzero" stroke-width="47.666691" stroke-linecap="round" stroke-linejoin="round" stroke-miterlimit="4" d="m102.047478,144.401688c0.00103,3.649246 -2.82885,6.608124 -6.320038,6.608124c-3.491211,0 -6.321091,-2.958878 -6.320061,-6.608124c-0.00103,-3.649231 2.82885,-6.608093 6.320061,-6.608093c3.491188,0 6.321068,2.958862 6.320038,6.608093z" id="path4334"/>
 </g>
</svg>
